<?xml version="1.0" encoding="UTF-8"?>
<svg xmlns="http://www.w3.org/2000/svg" width="1123" height="1396" viewBox="0 0 1123 1396" fill="none">
  <g clip-path="url(#clip0_6433_3209)">
    <path fill-rule="evenodd" clip-rule="evenodd" d="M0 0V853.887C0 1219.91 561.605 1396.1 561.605 1396.1C561.605 1396.1 1123 1219.91 1123 853.887V0H0ZM558.039 1105.42L103.931 651.145L562.339 192.458L1016.45 646.737L558.039 1105.42ZM559.927 330.137C740.941 330.137 881.368 463.514 881.368 644.744C881.368 726.071 852.947 802.257 805.334 858.819L853.681 908.455L804.81 957.776L756.882 907.195C703.081 951.375 635.017 975.196 559.088 975.196C378.074 975.196 239.429 831.115 239.429 649.151C239.429 467.187 377.13 330.242 559.927 330.242V330.137ZM559.927 896.387C605.862 896.387 659.768 880.436 695.95 849.584L602.821 757.028L654.419 704.664L745.346 796.59C773.662 755.874 792.12 703.824 792.12 648.207C792.12 512.206 690.601 407.897 559.822 407.897C429.043 407.897 330.251 511.262 330.251 649.046C330.251 786.831 430.931 896.387 559.822 896.387H559.927Z" fill="#699CC6"></path>
  </g>
  <defs>
    <clipPath id="clip0_6433_3209">
      <rect width="1123" height="1396" fill="white"></rect>
    </clipPath>
  </defs>
</svg>
